<?xml version="1.0" standalone="no"?>
<!DOCTYPE svg PUBLIC "-//W3C//DTD SVG 20010904//EN"
 "http://www.w3.org/TR/2001/REC-SVG-20010904/DTD/svg10.dtd">
<svg version="1.0" xmlns="http://www.w3.org/2000/svg"
 width="800.000000pt" height="800.000000pt" viewBox="0 0 800.000000 800.000000"
 preserveAspectRatio="xMidYMid meet">
<metadata>
Created by potrace 1.14, written by Peter Selinger 2001-2017
</metadata>
<g transform="translate(0.000000,800.000000) scale(0.100000,-0.100000)"
fill="#000000" stroke="none">
<path d="M5758 7995 c-3 -3 -16 -8 -29 -11 -40 -9 -54 -12 -54 -14 0 -2 -17
-6 -95 -24 -143 -34 -262 -84 -324 -138 -11 -10 -24 -18 -28 -18 -19 0 -178
-128 -259 -209 -47 -47 -113 -122 -146 -167 -72 -98 -193 -286 -192 -298 0 -5
-3 -12 -8 -15 -6 -3 -38 -60 -73 -126 -34 -66 -66 -124 -70 -130 -4 -5 -35
-64 -70 -130 -34 -66 -67 -123 -72 -126 -5 -3 -9 -9 -8 -13 1 -6 -57 -109 -90
-161 -47 -74 -90 -148 -90 -156 0 -5 -5 -9 -10 -9 -6 0 -15 -11 -20 -25 -8
-22 -39 -75 -87 -151 -7 -10 -22 -37 -34 -59 -12 -22 -27 -43 -33 -47 -6 -4
-8 -8 -4 -8 4 0 -7 -24 -26 -52 -18 -29 -46 -78 -63 -108 -17 -30 -39 -71 -51
-90 -11 -19 -29 -51 -40 -70 -48 -86 -65 -116 -74 -127 -6 -7 -8 -13 -5 -13 4
0 -5 -16 -18 -36 -14 -20 -25 -43 -25 -50 0 -8 -4 -14 -10 -14 -5 0 -10 -8
-10 -19 0 -10 -7 -24 -15 -31 -8 -7 -15 -18 -15 -26 0 -7 -6 -19 -12 -26 -7
-7 -31 -49 -53 -93 -22 -44 -42 -82 -45 -85 -3 -3 -20 -34 -38 -70 -62 -121
-107 -205 -112 -210 -3 -3 -12 -18 -20 -35 -8 -16 -17 -32 -20 -35 -3 -3 -23
-40 -45 -82 -22 -43 -43 -78 -47 -78 -5 0 -8 -6 -8 -12 0 -7 -18 -41 -40 -76
-22 -34 -40 -65 -40 -68 0 -8 -95 -149 -102 -152 -5 -2 -8 -8 -8 -13 0 -10
-137 -220 -150 -229 -3 -3 -9 -12 -12 -20 -3 -8 -44 -69 -91 -135 -47 -66 -96
-135 -109 -153 -13 -18 -30 -41 -38 -52 -8 -10 -40 -54 -70 -96 -127 -178
-313 -402 -457 -551 -83 -85 -156 -165 -213 -233 -19 -23 -44 -52 -56 -63 -26
-28 -102 -125 -187 -242 -37 -49 -70 -94 -75 -100 -4 -5 -23 -32 -42 -60 -18
-27 -37 -52 -40 -55 -8 -6 -164 -240 -173 -260 -4 -8 -18 -33 -32 -55 -44 -71
-139 -274 -144 -308 0 -4 -8 -21 -16 -37 -9 -17 -13 -30 -9 -30 4 0 2 -6 -4
-13 -6 -7 -13 -24 -15 -37 -2 -14 -9 -38 -16 -54 -6 -16 -9 -31 -6 -34 2 -3 0
-11 -5 -17 -6 -7 -12 -30 -14 -51 -3 -22 -5 -39 -6 -39 -4 0 -12 -43 -16 -85
-3 -25 -8 -70 -13 -100 -9 -60 -6 -312 4 -375 4 -22 8 -51 9 -65 1 -14 7 -34
12 -45 6 -11 17 -41 24 -68 7 -26 17 -47 21 -47 5 0 8 -4 7 -9 -8 -26 121
-183 198 -241 68 -52 199 -125 217 -122 4 1 7 -2 7 -7 0 -5 10 -11 23 -15 13
-3 40 -12 60 -21 20 -8 40 -16 44 -16 5 0 14 -5 20 -11 7 -6 13 -7 13 -3 0 4
6 3 12 -3 7 -6 56 -22 108 -37 213 -60 310 -76 485 -78 136 -1 272 9 365 28
19 4 42 9 50 10 8 1 22 5 30 8 8 3 44 13 80 22 94 25 194 58 285 95 87 34 327
149 335 159 3 4 30 25 60 46 57 41 61 45 145 115 138 115 489 459 700 685 55
59 108 115 117 123 9 9 14 20 11 25 -3 6 -1 7 5 3 6 -3 14 0 19 8 7 12 129
148 193 215 14 14 54 60 90 101 36 41 74 84 85 95 56 58 205 259 235 318 7 15
17 27 22 27 4 0 8 7 8 15 0 8 5 15 10 15 6 0 10 5 10 11 0 5 11 26 25 46 13
20 22 40 19 45 -3 4 -1 8 4 8 10 0 142 213 142 230 0 5 3 10 8 10 4 0 12 9 17
20 6 10 39 68 75 127 35 59 69 117 76 128 6 11 21 36 32 55 12 19 25 42 29 50
4 8 28 49 54 91 27 42 45 80 42 83 -4 3 -2 6 4 6 5 0 19 19 32 43 12 23 31 56
41 72 11 17 34 57 51 90 17 33 37 63 43 67 6 4 8 8 4 8 -4 0 16 48 45 108 54
110 99 209 103 227 1 6 20 48 42 95 42 91 81 179 81 183 -1 5 149 298 159 309
5 7 11 18 12 23 1 6 9 26 18 45 8 19 16 37 17 40 4 12 24 59 48 110 47 103
112 265 109 273 -1 4 3 7 8 7 5 0 9 3 8 8 -1 4 8 28 20 54 12 26 22 49 22 52
0 2 27 61 60 131 33 70 60 130 60 133 1 4 9 25 20 47 11 22 19 43 20 46 0 4 7
23 15 43 8 20 15 38 15 41 0 3 7 19 15 35 8 16 15 31 15 32 -1 3 -2 2 39 115
16 45 27 84 23 87 -3 3 0 6 7 6 7 0 11 6 8 14 -3 7 0 22 7 32 7 11 19 43 26
72 8 28 17 52 20 52 4 0 7 6 8 13 1 23 12 64 26 106 9 22 13 41 9 41 -3 0 -1
6 4 13 5 6 18 50 28 97 10 47 21 87 24 90 3 3 7 14 7 25 2 23 11 80 14 80 1 0
4 11 6 25 1 14 6 43 9 65 17 115 21 243 11 375 -4 52 -6 108 -6 123 0 16 -3
34 -7 40 -5 7 -9 23 -9 37 -1 14 -5 43 -9 65 -4 22 -8 49 -10 60 -1 11 -5 27
-7 35 -3 8 -13 42 -23 75 -26 93 -125 265 -210 364 -46 54 -162 162 -205 191
-12 8 -28 20 -34 25 -44 40 -375 225 -401 225 -11 0 -26 5 -60 20 -16 7 -34
14 -40 16 -5 1 -23 8 -40 15 -16 7 -33 13 -37 13 -3 1 -9 4 -13 8 -4 4 -13 4
-20 2 -7 -3 -16 -1 -20 5 -6 11 -97 16 -107 6z"/>
<path d="M6338 313 c6 -2 18 -2 25 0 6 3 1 5 -13 5 -14 0 -19 -2 -12 -5z"/>
</g>
</svg>
